<svg xmlns="http://www.w3.org/2000/svg" viewBox="0 0 82.89 103.9">
    <defs>
        <style>
            .cls-1 {
                fill: #be9e62;
            }

            .cls-2 {
                fill: #f2f0ec;
            }

            .cls-3 {
                fill: #be9e61;
            }

            .cls-4 {
                fill: #c5ad7c;
            }

            .cls-5 {
                fill: #c6af7f;
            }

            .cls-6 {
                fill: #c4ac7a;
            }

            .cls-7 {
                fill: #baa168;
            }

            .cls-8 {
                fill: #d1c0a1;
            }

            .cls-9 {
                fill: #f5f5f5;
            }

            .cls-10 {
                fill: #c6ae7e;
            }

            .cls-11 {
                fill: #c7af80;
            }

            .cls-12 {
                fill: #c5ad7d;
            }

            .cls-13 {
                fill: #c6ad7d;
            }

            .cls-14 {
                fill: #c5ae7d;
            }

            .cls-15 {
                fill: #bfa167;
            }

            .cls-16 {
                fill: #bea064;
            }

            .cls-17 {
                fill: #c4ab79;
            }

            .cls-18 {
                fill: #cdbb97;
            }

            .cls-19 {
                fill: #cfbf9d;
            }

            .cls-20 {
                fill: #c5ac7b;
            }

            .cls-21 {
                fill: #bea269;
            }

            .cls-22 {
                fill: #bea267;
            }

            .cls-23 {
                fill: #bd9f62;
            }

            .cls-24 {
                fill: #bc9d61;
            }

            .cls-25 {
                fill: #c5ac79;
            }

            .cls-26 {
                fill: #ba9853;
            }

            .cls-27 {
                fill: #c5ae80;
            }

            .cls-28 {
                fill: #b79855;
            }

            .cls-29 {
                fill: #f4f4f3;
            }

            .cls-30 {
                fill: #e8e2d5;
            }

            .cls-31 {
                fill: #f1ece5;
            }

            .cls-32 {
                fill: #f2eeea;
            }

            .cls-33 {
                fill: #f2f0ee;
            }
        </style>
    </defs>
    <g id="图层_2" data-name="图层 2">
        <g id="_1" data-name="1">
            <path class="cls-1"
                d="M73,21c-.81-3.52-3.58-5.73-5.59-8.46,8.74,4.26,14.13,11,15.28,20.81.88,7.53-1,14.62-4.17,21.38-3.72,7.88-7.72,15.64-11.38,23.55a58.79,58.79,0,0,0-5.53,20.83c-.26,3.74-1.7,4.89-5.5,4.78-10.34-.29-20.7-.12-31.05-.11-1.69,0-3.19.12-3.35-2.3-1.1-15.77-8.58-29.24-15.51-42.91C2.9,52.1.27,45.43,0,38-.34,27.41,4.07,19.49,12.73,13.72l2.49-1.66c1.77,1.09.37,2-.26,2.78a59.47,59.47,0,0,0-3.88,5.47,8.26,8.26,0,0,0,.31,10.39c4.18,5.47,3,11.12,1.13,16.9l-.31,1c1.84,2.41,3.67,2.63,5,.4,1.52-2.46,2.48-5.06,1.86-8.15-.74-3.71,0-4.65,3.55-4.93,5.45-.44,9.3-3.18,11.89-7.89,1.44-2.62,2.6-5.39,4.13-8,1.83-3.09,3.67-3.08,5.5,0,1.33,2.25,2.38,4.66,3.56,7,2.66,5.28,6.67,8.61,12.81,8.85,3.07.13,3.91,2,3.25,4.58-.78,3,.36,5.59,1.52,8.24,1,2.25,2.56,2,4.33,1.38,2.44-.81.63-2.15.36-3.25C68.65,41.4,67.22,36,71.34,31,73.79,28,73.47,24.49,73,21Z" />
            <path class="cls-2"
                d="M73,21c2.49,3.78,1.51,7.27-.78,10.75-.8,1.22-3,1.8-2.56,3.44,1,3.85-1.16,8.05,1.42,11.68.9,1.26,2.59,3.05.15,3.86-1.83.6-4.38,2.68-6.24-.46s-3.25-6.48-2-10.27c.68-2.15.31-3.09-2.32-3.11-6.7-.06-11.08-3.84-14-9.57-1.3-2.56-2.52-5.15-3.79-7.72-.9-1.83-1.85-1.88-2.79,0-1.24,2.44-2.52,4.87-3.7,7.35-2.89,6.13-7.4,10-14.45,10-2.73,0-2.49,1.4-2,3.08,1,3.37.12,6.39-1.49,9.31a4.89,4.89,0,0,1-7.19,1.36c-1-.82-1.42-1.82.2-2.53,4.92,1.44,5.88.86,6.06-3.74-1.59-.17-2.39,1-3.28,2s-1.14,2.32-2.79,1.81c2.56-4,.92-8.53,1.82-12.73a1.69,1.69,0,0,0-.66-1.65c-7.28-6.45-3.78-13.34,1-18.92.64-.75,2.55-1,1.64-2.77a2.71,2.71,0,0,1,3.81-.6c.85,1.9-.92,2.36-1.85,3.15a17.29,17.29,0,0,0-5.51,8.31c-.86,2.9-.67,5.64,1.74,7.82a1.08,1.08,0,0,0,.74-1.56c-2.13-7.1,1.92-11.3,7-15,3.36-2.47,7.53-3.32,11-5.58.86-.56,1.35-.94.27-1.69l-1.47-1.5a40.26,40.26,0,0,1,9-2.81c4.17-.88,7.93,1.19,11.38,3.51l-.9.82c-.73,1.19-2.63.29-3.18,1.79a4.09,4.09,0,0,0,2.17,5,36.52,36.52,0,0,1,5.91,5c2.92,3,4.88,6.75,7.13,10.27,2,3,2,7,5.24,9a71.83,71.83,0,0,0-3-8.72c-1.93-4.1-4.82-7.56-7.51-11.16a47.24,47.24,0,0,0-7.48-6.41c-1.13-.72-2.66-1.4-2.17-3.3a1.65,1.65,0,0,1,1.73-.4c5.43,2.94,11.64,4.52,16.06,9.19A16.13,16.13,0,0,1,69.08,23c.84,2.52-.62,5-.25,7.84,2.85-1.56,2.74-4,2.83-6.43.33-.81-.1-1.82.63-2.53Z" />
            <path class="cls-3"
                d="M51.32,6.07c-3.71.13-6.61-2.92-10.49-2.54-1.22.12-2.22-.11-3.25.86-1.92,1.8-4.38.91-6.64,1-3.92,0-7.85-.29-11.75,0-2.28.15-3-.81-3.11-2.65S17,0,18.86,0H64.17C65.94,0,67.05.79,67,2.69s-1,2.62-3.12,2.66C59.68,5.42,55.42,4.5,51.32,6.07Z" />
            <path class="cls-4"
                d="M32.41,6.87l3,.25a24.85,24.85,0,0,1-8.13,5c-4.37,1.64-8.19,4-10.9,8-1.78,2.63-2.79,5.27-1.24,8.34a2.92,2.92,0,0,1-1,3.93c-1.23.67-1.9-1.1-2.59-2-2.34-3.2-1.81-7.67,1.17-12.23,1.7-2.61,4.42-4.18,6.29-6.59C23.45,9.82,27.63,7.47,32.41,6.87Z" />
            <path class="cls-5"
                d="M72.29,21.88l.15,2.24c-1.57,1-2.85.26-4.1-.71a20,20,0,0,0-13-11.31c-2.86-.88-4.67-3.84-7.93-3.7l0,0c-.58-1.66-.58-1.66,3-1.54C59.93,8.65,67.84,12.74,72.29,21.88Z" />
            <path class="cls-6"
                d="M58.33,6.47c1.46-.54,2.85.4,4.33-.13,1.23-.45,2.09.71,1.87,2a1.48,1.48,0,0,1-2.24,1.16C60.83,8.83,58.9,8.61,58.33,6.47Z" />
            <path class="cls-7"
                d="M19,6.32c1.61-.29,2.44.93,3.17,1.93.21.29-1,.92-1.77.91C19.05,8.67,18.26,7.88,19,6.32Z" />
            <path class="cls-8"
                d="M19,6.32c-.17,1.26,1,1.84,1.4,2.84-.48.72-1.22,1.1-1.78.37A2.13,2.13,0,0,1,19,6.32Z" />
            <path class="cls-9"
                d="M67.47,59.11c-.63.66-1.11,1.23-1.65,1.74C58.31,68.14,50.76,75.4,43.29,82.73c-1.34,1.32-2.22,1.5-3.66.08Q28.3,71.66,16.79,60.71c-1.3-1.23-1.39-2-.06-3.24q11.63-11.1,23.12-22.34c1.11-1.09,1.87-1.24,3.06-.08,7.77,7.57,15.59,15.08,23.38,22.62A15.46,15.46,0,0,1,67.47,59.11Z" />
            <path class="cls-10"
                d="M36.61,8.74c.81,2.35.36,4-1.91,5.32-7.1,4.17-11.25,10.86-14.82,18-1.1,2.2-1,5-4,6.19-1.78.75,1.08,2.88-.5,4.41-1.83-1.91-1.5-4.14-.88-6.2C18,24.94,24.36,15.6,34.82,9.34A9.89,9.89,0,0,1,36.61,8.74Z" />
            <path class="cls-11"
                d="M22.62,35.66c-.94.13-1.79-.09-2.06-1.08a1.72,1.72,0,0,1,1.12-2.14c8.85-1.29,9.94-9.39,13.56-15.27.19-.32.34-.66.52-1,.85-1.49,1.8-.73,2.81-.17,1.19.65,1,1.21.41,2.32-1.82,3.28-3.36,6.71-5.07,10.05C31.56,33,27.6,35.11,22.62,35.66Z" />
            <path class="cls-12"
                d="M51.87,25.73c2.07,3.17,4.2,6.16,8.58,6.31a2.09,2.09,0,0,1,1.82,2.44c-.18,1.22-1.21,1.17-2.33,1.11a12.79,12.79,0,0,1-11.86-9.9C49.36,24.31,50.61,25.43,51.87,25.73Z" />
            <path class="cls-13"
                d="M47.39,8.4c3.32,3.22,7.73,5.18,10.5,9-.26,2-1.75,1.59-3,1.57C52,17.46,50,14.94,47.21,13.26c-1.77-1.08-2.56-3.33.22-4.83Z" />
            <path class="cls-14"
                d="M54.85,19c.63-1.27,2.35-.41,3-1.57,2.88,3.48,5.72,7,7.44,11.23-1,1.34-2.46.39-3.67.7Z" />
            <path class="cls-15" d="M60.86,31C52.68,28.71,52.48,21.24,49,16.33A36.23,36.23,0,0,1,60.86,31Z" />
            <path class="cls-16" d="M33.8,16.37c-3.36,4.85-3.73,12-11.52,14.7C24.79,24.39,28.93,20.1,33.8,16.37Z" />
            <path class="cls-17"
                d="M51.87,25.73c-1.28,1.16-2.52-.57-3.79,0-2.44-2.13-2.69-5.51-4.56-8-.93-1.24.48-1.37,1.07-1.83,1.12-.88,2-.75,2.65.63C48.74,19.6,50.32,22.66,51.87,25.73Z" />
            <path class="cls-13"
                d="M61.66,29.37c1.05-1.16,2.43-.56,3.67-.7C67,32,68.62,35.23,68.44,39,63.45,37.6,63.72,32.7,61.66,29.37Z" />
            <path class="cls-18"
                d="M63.86,44.4c.11-.73-.26-2.23,1.14-1.47s3-.72,3.08-.52c.52,2.06,1.92,3.82,2.27,5.8.28,1.58-1.71,1.86-3,2C65.73,50.36,63.83,47.06,63.86,44.4Z" />
            <path class="cls-19"
                d="M11.42,48.13c2.38-1.77,3-5.91,7.35-5.2A6.17,6.17,0,0,1,16.14,50a3.33,3.33,0,0,1-4.71-1.9Z" />
            <path class="cls-20"
                d="M68.34,23.41a9.12,9.12,0,0,1,4.1.71,6.71,6.71,0,0,1-1.5,6.59c-.7.87-1.46,2.16-2.34,1.61a2.81,2.81,0,0,1-1-3.56A9.25,9.25,0,0,0,68.34,23.41Z" />
            <path class="cls-21" d="M66.38,27.12c-3-4.31-5.28-8.68-9.17-12.2C63.06,16.32,67.22,21.75,66.38,27.12Z" />
            <path class="cls-22" d="M16.42,26.5c-.38-6.21,3.77-9.25,8.66-11.76C22.09,18.55,19.31,22.5,16.42,26.5Z" />
            <path class="cls-14"
                d="M44.56,9.81c-.47,1.77,1.1,4.75-1.36,4.75-1.94,0-1.05-3-.94-4.63S40.92,5,43.39,5,43.76,8.3,44.56,9.81Z" />
            <path class="cls-10"
                d="M40.75,10c-.59,1.49,1,4.6-1.31,4.59s-.9-2.94-1-4.6a6.74,6.74,0,0,1,0-1.85c.2-1.18-.84-3.33,1.18-3.22C41.21,5,40.64,7,40.64,8.35,40.65,8.84,40.71,9.34,40.75,10Z" />
            <path class="cls-23"
                d="M53.6,47.79c-2.25,1.28-5.27,1.37-3.46,4.49,1.37.65,1.26-2,2.6-1.22,1,.64.59,1.82.6,2.76,0,4.11.07,8.22-.05,12.32s-1.52,5.2-6.78,5.17c-4.75,0-5.9-1-6-5.1-.07-4.36,0-8.72,0-13.07,0-.82-.19-2.4,1.38-1.55.94.52,1.55,1.54,2.06-.13.34-1.11.28-2.29-1.34-2.5-.92-.12-2.4.16-2.2-1.27.16-1.15,1.57-1,2.54-.94C46.3,47,49.69,46.05,53.6,47.79Z" />
            <path class="cls-24" d="M33.39,70.35V47.68h.86V70.32Z" />
            <path class="cls-25" d="M37.08,57.74c1.73,4.33,1.39,8.71.17,13.09C35.74,66.51,36.16,62.15,37.08,57.74Z" />
            <path class="cls-26" d="M30.08,57.75c1.75,3.34,1.78,9.37.11,12.94C29.2,66.42,29.6,62.1,30.08,57.75Z" />
            <path class="cls-27" d="M37.15,55.19c-1.43-3-1.18-5.31-.29-8.2C38.7,50.12,38.75,51.51,37.15,55.19Z" />
            <path class="cls-28" d="M30.29,47.69c1.39,2.23,1.43,4.53.2,7.21C29,52.33,29.52,50,30.29,47.69Z" />
            <path class="cls-29"
                d="M42.47,69.78c.3-3.32-1.91-6,1.73-8,2.61-1.44,1.11-4.58,2.29-7,1.42,1,1,2.22,1.12,3.21.15,1.39.29,3,1.58,3.64,3.57,1.88,1.92,4.66,1.74,8.36-1.74-2.59-.83-6-4-6C43.33,63.8,45,67.73,42.47,69.78Z" />
            <path class="cls-30"
                d="M43,60.23c-.4-.52-.64-.69-.66-.88-.09-1.43-.55-2.93.38-4.22a.75.75,0,0,1,1.22.24A4.28,4.28,0,0,1,43,60.23Z" />
            <path class="cls-31" d="M50.41,55.17c1.23,1.51,1,3.1.51,5C49,58.54,49.79,56.83,50.41,55.17Z" />
            <path class="cls-32"
                d="M48.14,67.47c0,.74,0,1.57-1,1.67-1.32.13-1.27-.89-1.27-1.73s0-1.66.95-1.73C48,65.59,48,66.62,48.14,67.47Z" />
            <path class="cls-33" d="M46.76,52.89c-1.16-1.62-.79-2.69-.42-4.22C48,50.1,47.79,51.22,46.76,52.89Z" />
        </g>
    </g>
</svg>