<svg xmlns="http://www.w3.org/2000/svg" viewBox="0 0 8.48 9">
    <defs>
        <style>
            .cls-1 {
                fill: #c69a60;
            }
        </style>
    </defs>
    <g id="图层_2" data-name="图层 2">

        <path class="cls-1"
            d="M4.38,9h-2C1.62,9-.21,5.13.54,3.86a3,3,0,0,1,2-1.38c.56,0,1,.69,1.8.69Zm0,0h2C7.14,9,8.87,5,8,3.79A2.76,2.76,0,0,0,6,2.48c-.41,0-.81.69-1.66.69ZM8,1.31c.23.29.66,1.93.4,2.08s-.66-.56-1.17-.86a1.84,1.84,0,0,0-1.09-.32,1.45,1.45,0,0,0-.7.3,1.9,1.9,0,0,1-1,.29,1.65,1.65,0,0,1-1-.29,1.34,1.34,0,0,0-.85-.3,1.68,1.68,0,0,0-1,.32c-.51.3-1.3,1-1.55.86S.34,1.62.6,1.31c.11-.14.32-.28.46-.13.36.38,2.18.59,3.25.59s2.82-.15,3.25-.59C7.7,1,7.89,1.17,8,1.31ZM7.58.7c0,.49-1.46.92-3.27.92S1,1.19,1,.7,2.48,0,4.3,0,7.58.21,7.58.7Z" />

    </g>
</svg>