<svg xmlns="http://www.w3.org/2000/svg" viewBox="0 0 45.36 72.57"><defs><style>.cls-1{fill:#bfbfbf;}</style></defs><g id="图层_2" data-name="图层 2"><g id="图层_2-2" data-name="图层 2"><path class="cls-1" d="M13.21,39.75.19,69.39a2.27,2.27,0,0,0,4.16,1.82l13-29.64a9.18,9.18,0,0,0,.78-3.71V29.59a9.52,9.52,0,0,0-2.39-6.23L4,9.85a2.27,2.27,0,0,0-3.42,3L12.33,26.34a4.9,4.9,0,0,1,1.28,3.25v8.27a4.74,4.74,0,0,1-.4,1.88ZM33,26.34,44.8,12.83a2.27,2.27,0,0,0-3.42-3L29.61,23.36a9.49,9.49,0,0,0-2.4,6.23v8.27A9.19,9.19,0,0,0,28,41.57L41,71.21a2.27,2.27,0,1,0,4.16-1.82l-13-29.64a4.75,4.75,0,0,1-.4-1.89V29.59A4.93,4.93,0,0,1,33,26.34ZM22.68,0a9.07,9.07,0,1,0,9.07,9.07A9.08,9.08,0,0,0,22.68,0Zm0,13.61a4.54,4.54,0,1,1,4.53-4.54A4.55,4.55,0,0,1,22.68,13.61Z"/></g></g></svg>