<svg xmlns="http://www.w3.org/2000/svg" viewBox="0 0 63.66 51.81"><defs><style>.cls-1{fill:#bfbfbf;}</style></defs><g id="图层_2" data-name="图层 2"><g id="图层_2-2" data-name="图层 2"><path class="cls-1" d="M31.74,51.81l-1.44-1c-.46-.3-11.54-7.64-25.24-21.29l-.91-.9,0,0A17.33,17.33,0,0,1,27.74,3.48l.12-.12L29.46,5l.12.12,0,0,2.2,2.21L35.74,3.4l.12.12A17.35,17.35,0,0,1,59.41,28.75l0,0,0,0,0,0h0l0,0,0,0h0l0,0h0l0,0v0l0,0h0l0,0,0,0,0,0,0,0,0,0,0,0h0l0,0h0l0,0h0l-.79.79c-13.85,13.82-24.93,21-25.4,21.25ZM17.32,5.31A12,12,0,0,0,8.78,25.78a186.42,186.42,0,0,0,23,19.65,176.44,176.44,0,0,0,23.1-19.6,12,12,0,0,0-17.08-17l0,0-.1.11L35.81,10.9l0,0-4,4-4-4,0,0L26,9l-.1-.11,0,0A11.93,11.93,0,0,0,17.32,5.31ZM57.26,26.67l.27.27Zm0,0,.26.27ZM15,17.27H9.69c0-5.94,4.94-8.58,7.56-9.15l1.12,5.22h0a5.78,5.78,0,0,0-1.9.92,3.49,3.49,0,0,0-1.49,3Z"/></g></g></svg>