<svg xmlns="http://www.w3.org/2000/svg" viewBox="0 0 68.13 68.13"><defs><style>.cls-1{fill:#bfbfbf;}</style></defs><g id="图层_2" data-name="图层 2"><g id="图层_2-2" data-name="图层 2"><path class="cls-1" d="M68,31.55q.09,1.25.09,2.52A34.07,34.07,0,1,1,34.06,0q1.27,0,2.52.09A2.9,2.9,0,0,1,38,5.7a2.82,2.82,0,0,1-1.19,0v.06c-.92-.09-1.84-.13-2.77-.13A28.39,28.39,0,1,0,62.45,34.07c0-.94,0-1.86-.13-2.77h.06a2.89,2.89,0,0,1,5.71-.94,2.81,2.81,0,0,1,0,1.19Z"/><path class="cls-1" d="M31.06,17.39a2.55,2.55,0,1,1,1,4.84v.18A11.92,11.92,0,1,0,45.91,35.52H46a2.55,2.55,0,1,1,5,1,2.21,2.21,0,0,1-.21.61A17,17,0,1,1,31.06,17.39Z"/><path class="cls-1" d="M44.57,26.9,36.5,35.14a2.44,2.44,0,0,1-3.44,0l-.05,0a2.58,2.58,0,0,1,0-3.58l8.13-8.28-.55-6.72a6.73,6.73,0,0,1,1.95-5.31L52.61,1.18a3.69,3.69,0,0,1,5.22,0,3.79,3.79,0,0,1,.83,1.26l.08.2a12.1,12.1,0,0,0,7.05,6.93,3.49,3.49,0,0,1,2,4.49A3.62,3.62,0,0,1,67,15.3L56.82,25.51a6.74,6.74,0,0,1-5.31,2Zm1.55-12.09a1.69,1.69,0,0,0-.49,1.33L46.1,22l5.82.47A1.68,1.68,0,0,0,53.25,22l8.64-8.64A17.13,17.13,0,0,1,54.8,6.12l-8.68,8.69Z"/></g></g></svg>