<?xml version="1.0" encoding="utf-8"?>
<!-- Generator: Adobe Illustrator 24.2.1, SVG Export Plug-In . SVG Version: 6.00 Build 0)  -->
<svg version="1.1" id="图层_1" xmlns="http://www.w3.org/2000/svg" xmlns:xlink="http://www.w3.org/1999/xlink" x="0px" y="0px"
	 viewBox="0 0 398.5 222" style="enable-background:new 0 0 398.5 222;" xml:space="preserve">
<style type="text/css">
	.st0{fill:none;stroke:#C69B40;stroke-width:2.36;}
</style>
<g id="图层_2_1_">
	<g id="图层_2-2">
		<path class="st0" d="M166.6,1.2C182.5,1.9,197.2,9.5,207,22c13.4,17.1,15.6,40.4,5.7,59.7l0,0c-3.8,8.4-1.1,20.3,7.4,29.4
			s20,12.6,28.5,9.3l0.1,0.1c17.6-7.6,37.9-4.6,52.5,7.8l0.1-0.1c4.9,2.9,12.3,1.8,18.4-3s8.9-11.8,7.3-17.3l0.1-0.1
			C321,90.8,328,72,343.8,63.2c17.4-9.6,39.3-3.2,48.9,14.3c0.1,0.1,0.1,0.3,0.2,0.4c9.6,17.7,3.1,39.9-14.5,49.7
			c-11.8,6.5-26.3,5.8-37.4-1.9l-0.1,0.1c-4.9-2.9-12.4-1.8-18.4,3s-8.9,11.8-7.3,17.3h-0.1c10.4,21.9,4.4,48-14.4,63.3
			c-22,17.8-54.2,14.3-72-7.7c-0.2-0.2-0.4-0.4-0.5-0.7c-12.5-15.9-14.7-37.5-5.8-55.6l0,0c3.8-8.4,1.1-20.3-7.4-29.4
			s-20-12.6-28.5-9.3l-0.1-0.1c-20.6,9.5-44.9,4.8-60.5-11.7c-5.8-4.2-15.1-4-23.3,1c-8.4,5.1-13.2,13.6-12.1,20.8l0,0
			c4,17.1-2.2,34.9-15.8,45.8c-19.2,15.6-47.5,12.6-63.1-6.6c-0.2-0.2-0.4-0.5-0.6-0.7C-4.5,135.5-1.3,106.9,18.3,91
			c16.8-13.6,41-13.2,57.4,0.9l0.2-0.1c5.8,4.4,15.4,4.3,23.8-0.7s13.1-13.6,12.1-20.8c-5.5-21.1,1.8-43.4,18.7-57.1
			c8.5-6.9,18.8-11,29.6-11.9C162.3,1.2,164.5,1.1,166.6,1.2"/>
	</g>
</g>
</svg>
