<svg xmlns="http://www.w3.org/2000/svg" viewBox="0 0 50.17 50.17"><defs><style>.cls-1{fill:#d8dadf;}.cls-2{fill:#bfbfbf;}</style></defs><g id="图层_2" data-name="图层 2"><g id="图层_2-2" data-name="图层 2"><path class="cls-1" d="M35.12,35.12a13.25,13.25,0,0,0,4.08-10A13.93,13.93,0,0,0,25.09,11,13.93,13.93,0,0,0,11,25.09a13.73,13.73,0,0,0,4.08,10,13.26,13.26,0,0,0,10,4.08A13.73,13.73,0,0,0,35.12,35.12Z"/><path class="cls-2" d="M29.47,0A22.81,22.81,0,0,1,42,6.27l.62.63a24.41,24.41,0,0,1,7.53,17.87A25.38,25.38,0,0,1,43,42.64l-.63.63a24.13,24.13,0,0,1-17.24,6.9A24.43,24.43,0,0,1,7.21,42.64,24.35,24.35,0,0,1,0,24.77,25.4,25.4,0,0,1,7.21,6.9,27.17,27.17,0,0,1,20.07,0c.63,0,.94,0,1.25.31.63.32.94.63.94,1.26s0,.94-.31,1.25c-.31.63-.63.94-1.25.94-4.08.63-7.53,2.82-10.67,6l-.94.63A21.55,21.55,0,0,0,3.76,24.77,21.88,21.88,0,0,0,10,40.14a20.64,20.64,0,0,0,15.06,6.27,20.63,20.63,0,0,0,15.05-6.27,21.35,21.35,0,0,0,6.27-15.37A21.85,21.85,0,0,0,40.14,9.41a20.09,20.09,0,0,0-11-6h-.31c-.32,0-.63-.31-.94-.63a1.84,1.84,0,0,1-.32-1.25A1.66,1.66,0,0,1,28.22.31c.31,0,.63-.31,1.25-.31ZM26.65,8.78a1.63,1.63,0,0,1,1.26.63,1.62,1.62,0,0,1,.62,1.25V27a1.17,1.17,0,0,1-.31.94l-.31.31-7.84,8.15a2.35,2.35,0,0,1-1.26.63,1.61,1.61,0,0,1-1.25-.63,2.4,2.4,0,0,1-.63-1.25,1.66,1.66,0,0,1,.63-1.26l7.21-7.52V11a1.15,1.15,0,0,1,.32-.94V9.09a2.35,2.35,0,0,1,1.56-.31Z"/></g></g></svg>