<?xml version="1.0" standalone="no"?><!DOCTYPE svg PUBLIC "-//W3C//DTD SVG 1.1//EN" "http://www.w3.org/Graphics/SVG/1.1/DTD/svg11.dtd"><svg t="1683024659450" class="icon" viewBox="0 0 1024 1024" version="1.1" xmlns="http://www.w3.org/2000/svg" p-id="2412" xmlns:xlink="http://www.w3.org/1999/xlink" width="200" height="200"><path d="M583.329579 682.791776c250.446836 10.986905 440.295092 76.089434 440.295092 169.853454C1023.624671 955.280664 793.71857 1024 511.812335 1024S0 955.280664 0 852.64523c0-77.658992 127.543634-134.709007 316.231782-159.207757 18.629969-2.456699 36.09983 8.188997 38.897737 23.816334 2.934391 15.559095-9.826797 30.162807-28.388524 32.619506-157.365233 20.472493-258.49935 65.648462-258.49935 102.771917 0 55.071007 197.90077 114.236513 443.57069 114.236513s443.570691-59.165506 443.570691-114.236513c0-48.451568-160.026657-103.31785-375.670254-112.803439-18.766452-0.8189-33.233681-14.194262-32.278298-30.026323 1.023625-15.695578 17.060411-27.774349 35.895105-26.95545z m345.985139-625.980607a68.241645 68.241645 0 0 1-5.595815 41.286195l-70.084169 146.310087 114.645963 111.438605a68.241645 68.241645 0 0 1-35.69038 116.14728L459.061544 555.452867l53.364966 302.44697a34.120822 34.120822 0 1 1-67.21802 11.805804L314.866949 130.512146a34.120822 34.120822 0 0 1 27.637866-39.580154L850.290893 1.398954a68.241645 68.241645 0 0 1 79.160308 55.412215zM862.16494 68.616974L387.95375 152.212989l59.30199 336.021858 473.460531-83.459531-149.79041-145.62767L862.16494 68.616974z m-126.315285 91.580287l-58.483089 114.236513 94.036986 87.349306-268.87208 47.427943-35.485655-201.654061 268.803838-47.359701z" fill="#269D7B" p-id="2413"></path></svg>