<svg xmlns="http://www.w3.org/2000/svg" viewBox="0 0 195.85 197.91">
    <defs>
        <style>
            .cls-1 {
                fill: #bbac8b;
            }

            .cls-2 {
                fill: #c2b290;
            }

            .cls-3 {
                fill: #b0a183;
            }

            .cls-4 {
                fill: #beaf8a;
            }
        </style>
    </defs>
    <g id="图层_2" data-name="图层 2">
        <g id="酒海">
            <path class="cls-1"
                d="M183.52,130.32c7.07-15.86,9.16-32.13,4-49-.07-11.49-7.36-20-12.25-29.46-.91-1.77-2.89-3.07-3.5-4.88-1.21-3.61-4.23-8.32,1.1-10.59,4.82-2.06,5.73,3.21,7.47,6.14a176.71,176.71,0,0,1,15.37,34.71c0,11.22.32,22.45,0,33.66-.45,15.56-6.56,28.89-14.89,42.06s-19.35,22.42-31.55,30.94c-11.38,8-25.11,9.62-38,13.36-2,.58-4.34,0-4.68-2.59-.36-2.78,1.59-4.51,3.92-5.3,6.06-2.06,12.22-3.82,18.31-5.76C155.9,175,172.65,155.67,183.52,130.32Z" />
            <path class="cls-2"
                d="M3.86,128.31C4.42,124.75,3,121,5.13,117.4c3.79-.53,4.07,4.17,7,4.71,9.19,30.25,25.44,53.74,58.36,61.49,5.88,1.39,11.66,3.22,17.41,5.05,1.78.57,4.48.49,4.68,3.1s-2,4.5-4.21,5.06c-2.88.75-6.66,1.74-8.92.52-12.35-6.68-26.7-7.16-38.1-18.81-9.85-10.07-22-18-29.21-30.82C8.7,141.53,4.47,135.71,3.86,128.31Z" />
            <path class="cls-3"
                d="M16.25,42.59C38.49,16.37,66.66,1.12,101.06,0,119.43-.54,137,5.3,152,16.7c2.48,1.88,7,3.62,5.11,7.51-1.79,3.65-5.44-.41-8.27.05-13.75-9.15-28.33-13.88-45.34-15C81,7.86,61.55,13.74,43.71,26,32.22,34,24.8,46,16.22,56.81c-6.2-.24-5.54-3.91-4-8Z" />
            <path class="cls-4"
                d="M8.1,95.43c-.29,3.1.17,7-3.92,7.22S-.14,99,.05,96C.27,92.57.84,88.24,5,88.28,9.39,88.32,7.5,92.85,8.1,95.43Z" />
        </g>
    </g>
</svg>